<mxfile host="app.diagrams.net" modified="2023-04-22T19:50:57.137Z" agent="Mozilla/5.0 (Macintosh; Intel Mac OS X 10.15; rv:109.0) Gecko/20100101 Firefox/112.0" etag="XDWmInhN1FyysYs5c6rD" version="21.1.8" type="github">
  <diagram name="Page-1" id="tJ-EXyethJ9jSLFZDshS">
    <mxGraphModel dx="1354" dy="1417" grid="0" gridSize="10" guides="1" tooltips="1" connect="1" arrows="1" fold="1" page="0" pageScale="1" pageWidth="850" pageHeight="1100" math="0" shadow="0">
      <root>
        <mxCell id="0" />
        <mxCell id="1" parent="0" />
        <mxCell id="1UqsaTppo-crhsZXXdbq-1" value="" style="verticalLabelPosition=bottom;verticalAlign=top;html=1;shadow=0;dashed=0;strokeWidth=1;shape=mxgraph.android.phone2;strokeColor=#c0c0c0;" vertex="1" parent="1">
          <mxGeometry x="-153" y="-429" width="200" height="390" as="geometry" />
        </mxCell>
        <mxCell id="1UqsaTppo-crhsZXXdbq-2" value="" style="strokeWidth=1;html=1;shadow=0;dashed=0;shape=mxgraph.android.statusBar;align=center;fillColor=#000000;strokeColor=#ffffff;fontColor=#ffffff;fontSize=10;sketch=0;" vertex="1" parent="1">
          <mxGeometry x="-144.79" y="-393" width="183.57" height="15.825" as="geometry" />
        </mxCell>
      </root>
    </mxGraphModel>
  </diagram>
</mxfile>
